<?xml version="1.0" encoding="utf-8"?>
<!DOCTYPE svg PUBLIC "-//W3C//DTD SVG 1.1//EN" "http://www.w3.org/Graphics/SVG/1.1/DTD/svg11.dtd">
<svg version="1.1" id="Capa_1" xmlns="http://www.w3.org/2000/svg" xmlns:xlink="http://www.w3.org/1999/xlink" x="0px" y="0px"
	  viewBox="0 0 72 65" enable-background="new 0 0 72 65" xml:space="preserve">
<g>
	<path fill="currentColor" d="M29.04,31.319h1.328c1.292,0,2.11,0.787,2.12,1.875c0.016,1.118-0.854,1.914-2.172,1.914
		c-1.196-0.008-2.074-0.677-2.136-1.574H26c0.06,1.903,1.582,3.516,4.306,3.516c2.48,0,4.57-1.375,4.544-3.746
		c-0.026-1.984-1.494-2.875-2.584-2.982v-0.129c0.88-0.146,2.25-1.099,2.216-2.865c-0.026-1.887-1.6-3.271-4.106-3.26
		c-2.62,0.01-4.086,1.529-4.148,3.479h2.206c0.044-0.814,0.766-1.564,1.872-1.564c1.064,0,1.856,0.688,1.856,1.693
		c0.008,0.998-0.766,1.74-1.856,1.74h-1.264L29.04,31.319z M36.252,24.304v12.498h4.378c3.62,0,5.37-2.306,5.37-6.281
		c0-3.945-1.723-6.217-5.37-6.217H36.252z M38.626,26.319h1.688c2.224,0,3.242,1.429,3.242,4.25c0,2.818-1.011,4.208-3.242,4.208
		h-1.688V26.319z"/>
</g>
</svg>
