<svg width="14" height="12" viewBox="0 0 14 12" fill="none" xmlns="http://www.w3.org/2000/svg">
<path d="M8.32778 0.633334L13.6667 6L8.32778 11.3667C8.27956 11.43 8.2183 11.4822 8.14815 11.5198C8.078 11.5574 8.00059 11.5794 7.92116 11.5845C7.84173 11.5896 7.76215 11.5775 7.68779 11.5492C7.61343 11.5208 7.54603 11.4768 7.49015 11.4201C7.43428 11.3634 7.39124 11.2954 7.36394 11.2207C7.33664 11.1459 7.32572 11.0661 7.33192 10.9868C7.33812 10.9075 7.3613 10.8304 7.39988 10.7608C7.43847 10.6911 7.49156 10.6306 7.55556 10.5833L11.55 6.55556H0.922222C0.77488 6.55556 0.633572 6.49703 0.529386 6.39284C0.425199 6.28865 0.366667 6.14734 0.366667 6C0.366667 5.85266 0.425199 5.71135 0.529386 5.60716C0.633572 5.50298 0.77488 5.44444 0.922222 5.44444H11.55L7.55556 1.41667C7.45168 1.31205 7.39362 1.17046 7.39414 1.02304C7.39466 0.875611 7.45372 0.734432 7.55833 0.630555C7.66295 0.526679 7.80454 0.468615 7.95196 0.469135C8.09939 0.469656 8.24057 0.52872 8.34445 0.633334H8.32778Z" fill="white"/>
</svg>
