<svg width="30" height="39" viewBox="0 0 30 39" fill="none" xmlns="http://www.w3.org/2000/svg">
<path d="M17.2083 1.83958C16.6224 1.25437 15.8281 0.925666 15 0.925666C14.1719 0.925666 13.3776 1.25437 12.7917 1.83958L1.00208 13.6229C0.415844 14.2092 0.0864983 15.0043 0.0864983 15.8333C0.0864983 16.6624 0.415844 17.4575 1.00208 18.0438C1.58832 18.63 2.38343 18.9593 3.2125 18.9593C4.04157 18.9593 4.83668 18.63 5.42292 18.0438L11.875 11.5938V35.625C11.875 36.4538 12.2042 37.2487 12.7903 37.8347C13.3763 38.4208 14.1712 38.75 15 38.75C15.8288 38.75 16.6237 38.4208 17.2097 37.8347C17.7958 37.2487 18.125 36.4538 18.125 35.625V11.5938L24.575 18.0438C24.8653 18.334 25.2099 18.5643 25.5891 18.7214C25.9684 18.8785 26.3749 18.9593 26.7854 18.9593C27.1959 18.9593 27.6024 18.8785 27.9817 18.7214C28.3609 18.5643 28.7056 18.334 28.9958 18.0438C29.2861 17.7535 29.5164 17.4089 29.6735 17.0296C29.8306 16.6503 29.9114 16.2438 29.9114 15.8333C29.9114 15.4228 29.8306 15.0163 29.6735 14.6371C29.5164 14.2578 29.2861 13.9132 28.9958 13.6229L17.2083 1.83958Z" fill="white"/>
</svg>
