<svg width="46" height="37" viewBox="0 0 46 37" fill="none" xmlns="http://www.w3.org/2000/svg">
<path d="M30.744 32.1589C26.7888 29.8197 24.1108 30.2122 23.0003 31.823C21.8899 30.2122 19.2116 29.8197 15.2564 32.1589C11.6074 34.317 6.13761 30.2793 7.04609 31.4068C13.3521 39.2372 21.0341 36.5933 23.0005 34.1383C24.967 36.5931 32.649 39.2372 38.955 31.4068C39.8632 30.2793 34.3936 34.317 30.744 32.1589Z" fill="white"/>
<path d="M32.3218 4.26894C32.2159 4.31705 32.107 4.36771 32.0007 4.42094C31.4328 3.69794 30.7829 3.06279 30.0662 2.51893C24.9744 -1.36868 16.6796 -0.715154 12.6252 4.19433C12.4024 4.4637 12.1927 4.74675 11.9963 5.04005C11.9221 5.02124 11.8451 5.00542 11.7707 4.9896C5.7209 3.67955 0 8.31903 0 14.5518C0 21.1459 5.70006 24.8678 10.9985 24.2519C11.003 25.1639 11.0093 26.316 11.0093 27.7787C11.0093 28.503 11.4867 28.9915 11.9229 28.7176C18.9439 24.3107 27.0397 24.3107 34.0605 28.7176C35.1548 29.4043 35.0168 27.3039 34.9807 22.9143C40.3044 23.5548 46 19.7486 46 13.2095C46.0004 6.05402 38.6531 1.42736 32.3218 4.26894Z" fill="white"/>
</svg>
