<svg width="124" height="27" viewBox="0 0 124 27" fill="none" xmlns="http://www.w3.org/2000/svg">
<path d="M7.60298 25.1285C6.74043 25.9846 5.69181 26.4126 4.45773 26.4126C3.22366 26.4126 2.17192 25.9846 1.30315 25.1285C0.434386 24.2725 0 23.243 0 22.0393V5.00976C0 3.71961 0.349749 2.72686 1.048 2.0315C1.7475 1.33675 2.75131 0.989075 4.06131 0.989075H20.2306C21.2382 0.989075 22.1032 1.34902 22.8276 2.0689C23.552 2.78818 23.9136 3.63928 23.9136 4.61855C23.9136 5.59843 23.5514 6.44892 22.8276 7.16819C22.1032 7.88808 21.2376 8.24741 20.2306 8.24741H8.8968V11.1699H18.3033C19.2984 11.1699 20.1572 11.5267 20.8816 12.2399C21.606 12.9543 21.9682 13.8066 21.9682 14.7987C21.9682 15.7921 21.6091 16.6414 20.8915 17.349C20.1734 18.056 19.3114 18.4092 18.3039 18.4092H8.8968V22.0387C8.8968 23.243 8.46552 24.2725 7.60298 25.1285Z" fill="black"/>
<path d="M53.1486 15.2488C52.9999 16.4697 52.6919 17.6384 52.217 18.7507C51.525 20.3929 50.5498 21.8222 49.3008 23.0431C48.0474 24.2646 46.4767 25.2297 44.5842 25.9349C42.6966 26.645 40.6168 27 38.3547 27C36.5244 27 34.8248 26.7682 33.2447 26.3089C31.6646 25.8496 30.2806 25.2107 29.0994 24.3829C27.9133 23.5594 26.8951 22.5844 26.0444 21.4629C25.1943 20.3371 24.5552 19.1015 24.1183 17.7482C23.6858 16.3943 23.4698 14.979 23.4698 13.5031C23.4698 12.0308 23.6858 10.6162 24.1183 9.26224C24.5552 7.90893 25.1943 6.67335 26.0444 5.54692C26.8945 4.42539 27.9126 3.45042 29.0994 2.62752C30.2806 1.804 31.6646 1.15954 33.2447 0.700875C34.8248 0.241596 36.525 0.00981034 38.3547 0.00981034C40.6168 0.00981034 42.6966 0.364845 44.5842 1.07001C46.4767 1.78009 48.0474 2.74525 49.3008 3.96673C50.5498 5.18759 51.525 6.61694 52.217 8.25906C52.6203 9.20521 52.9041 10.1851 53.0665 11.2079H46.3472C45.166 9.06847 42.2697 7.49748 38.8357 7.38894C36.362 7.31291 34.1191 8.01317 32.5676 9.18191C32.3567 9.33337 32.4668 9.65959 32.7263 9.6694L38.7928 9.85826C39.2104 9.87236 39.5371 10.2182 39.5228 10.6297C39.5128 11.0411 39.1624 11.363 38.7449 11.3538L31.8912 11.1368C31.6366 11.1319 31.4008 11.2833 31.3056 11.5151C31.1469 11.9026 31.4251 12.3245 31.8482 12.3386L38.827 12.5563C39.1774 12.5661 39.4562 12.8543 39.4419 13.2044L39.4319 13.465C39.4226 13.8011 39.1394 14.0617 38.8027 14.0519L31.9098 13.8342C31.4487 13.8207 31.122 14.2751 31.2857 14.7006C31.3815 14.9373 31.6074 15.098 31.8669 15.1078L38.8121 15.3255C39.1245 15.3353 39.3647 15.591 39.3554 15.8933L39.3454 16.2814C39.3361 16.5843 39.0766 16.8259 38.7642 16.8167L32.7077 16.6273C32.4625 16.623 32.3473 16.9259 32.539 17.0774C34.009 18.2369 36.1081 18.9985 38.4611 19.0696C42.1502 19.1879 45.3297 17.574 46.4679 15.25H53.1486V15.2488Z" fill="black"/>
<path d="M84.537 13.4975C84.537 15.3574 84.1903 17.1086 83.4946 18.7465C82.8032 20.3837 81.8323 21.813 80.579 23.0339C79.325 24.2603 77.7548 25.2205 75.8673 25.9306C73.9748 26.6358 71.8994 26.9908 69.6322 26.9908C67.8069 26.9908 66.1024 26.759 64.5223 26.2997C62.9422 25.8411 61.5588 25.2015 60.377 24.3731C59.1908 23.5502 58.177 22.5752 57.3276 21.4537C56.4768 20.3315 55.834 19.0917 55.3965 17.7384C55.137 16.9339 54.9596 16.1054 54.8532 15.2488H63.8396C64.0898 16.3041 64.5789 17.2221 65.3139 17.9941C66.4285 19.1628 67.8692 19.7496 69.6316 19.7496C71.394 19.7496 72.8347 19.1628 73.9543 17.9941C75.0788 16.8198 75.6352 15.3199 75.6352 13.4975C75.6352 11.6709 75.0782 10.1753 73.9543 9.00163C72.8347 7.82799 71.394 7.24116 69.6316 7.24116C67.8692 7.24116 66.4285 7.82799 65.3139 9.00163C64.709 9.64058 64.2671 10.374 63.9933 11.2073H54.9304C55.0362 10.5401 55.1948 9.89137 55.3965 9.25243C55.8334 7.8985 56.4768 6.66354 57.3276 5.53772C58.1777 4.41558 59.1908 3.44122 60.377 2.61771C61.5588 1.79419 62.9422 1.15034 64.5223 0.691065C66.1024 0.231785 67.8069 0 69.6322 0C71.8994 0 73.9748 0.355037 75.8673 1.06511C77.7548 1.77028 79.3256 2.73544 80.579 3.95691C81.8323 5.17778 82.8025 6.61203 83.4946 8.24925C84.1903 9.88647 84.537 11.6328 84.537 13.4975Z" fill="black"/>
<path d="M90.398 26.041C89.088 26.041 88.0836 25.6964 87.3847 25.0084C86.6865 24.3191 86.3361 23.33 86.3361 22.0393V5.00976C86.3361 3.71961 86.6859 2.72686 87.3847 2.0315C88.0836 1.33675 89.0874 0.989075 90.398 0.989075H100.031C104.175 0.989075 107.43 2.11857 109.797 4.37695C112.165 6.63533 113.348 9.68779 113.348 13.5337C113.348 17.3803 112.165 20.4266 109.797 22.6721C107.429 24.9182 104.175 26.041 100.031 26.041H90.398ZM98.8418 18.801C100.504 18.801 101.866 18.3448 102.93 17.433C103.995 16.5212 104.527 15.2218 104.527 13.5337C104.527 11.8585 103.992 10.5585 102.921 9.63445C101.85 8.71098 100.491 8.24802 98.8412 8.24802H95.1956V18.801H98.8418Z" fill="black"/>
<path d="M120.005 26.041C122.211 26.041 124 24.2785 124 22.1043C124 19.9301 122.211 18.1676 120.005 18.1676C117.798 18.1676 116.009 19.9301 116.009 22.1043C116.009 24.2785 117.798 26.041 120.005 26.041Z" fill="black"/>
</svg>
