<svg width="19" height="24" viewBox="0 0 19 24" fill="none" xmlns="http://www.w3.org/2000/svg">
<path fill-rule="evenodd" clip-rule="evenodd" d="M4.75 1.1875C4.75 0.531662 5.28166 0 5.9375 0H15.4375C16.3823 0 17.2885 0.375334 17.9566 1.04343C18.6247 1.71153 19 2.61767 19 3.5625V20.1875C19 21.1323 18.6247 22.0385 17.9566 22.7066C17.2885 23.3747 16.3823 23.75 15.4375 23.75H5.9375C5.28166 23.75 4.75 23.2183 4.75 22.5625C4.75 21.9067 5.28166 21.375 5.9375 21.375H15.4375C15.7524 21.375 16.0545 21.2499 16.2772 21.0272C16.4999 20.8045 16.625 20.5024 16.625 20.1875V3.5625C16.625 3.24756 16.4999 2.94551 16.2772 2.72281C16.0545 2.50011 15.7524 2.375 15.4375 2.375H5.9375C5.28166 2.375 4.75 1.84334 4.75 1.1875ZM7.47281 6.28531C7.93656 5.82156 8.68844 5.82156 9.15219 6.28531L13.9022 11.0353C14.3659 11.4991 14.3659 12.2509 13.9022 12.7147L9.15219 17.4647C8.68844 17.9284 7.93656 17.9284 7.47281 17.4647C7.00906 17.0009 7.00906 16.2491 7.47281 15.7853L10.1956 13.0625H1.1875C0.531662 13.0625 0 12.5308 0 11.875C0 11.2192 0.531662 10.6875 1.1875 10.6875H10.1956L7.47281 7.96469C7.00906 7.50094 7.00906 6.74906 7.47281 6.28531Z" fill="#F1F1F1"/>
</svg>
