<?xml version="1.0" encoding="utf-8"?>
<!-- Generator: Adobe Illustrator 16.0.0, SVG Export Plug-In . SVG Version: 6.00 Build 0)  -->
<!DOCTYPE svg PUBLIC "-//W3C//DTD SVG 1.1//EN" "http://www.w3.org/Graphics/SVG/1.1/DTD/svg11.dtd">
<svg version="1.1" id="Capa_1" xmlns="http://www.w3.org/2000/svg" xmlns:xlink="http://www.w3.org/1999/xlink" x="0px" y="0px"
	 width="72px" height="65px" viewBox="0 0 72 65" enable-background="new 0 0 72 65" xml:space="preserve">
<g>
	<path fill="#212121" d="M29.04,31.319h1.328c1.292,0,2.11,0.787,2.12,1.875c0.016,1.118-0.854,1.914-2.172,1.914
		c-1.196-0.008-2.074-0.677-2.136-1.574H26c0.06,1.903,1.582,3.516,4.306,3.516c2.48,0,4.57-1.375,4.544-3.746
		c-0.026-1.984-1.494-2.875-2.584-2.982v-0.129c0.88-0.146,2.25-1.099,2.216-2.865c-0.026-1.887-1.6-3.271-4.106-3.26
		c-2.62,0.01-4.086,1.529-4.148,3.479h2.206c0.044-0.814,0.766-1.564,1.872-1.564c1.064,0,1.856,0.688,1.856,1.693
		c0.008,0.998-0.766,1.74-1.856,1.74h-1.264L29.04,31.319z M36.252,24.304v12.498h4.378c3.62,0,5.37-2.306,5.37-6.281
		c0-3.945-1.723-6.217-5.37-6.217H36.252z M38.626,26.319h1.688c2.224,0,3.242,1.429,3.242,4.25c0,2.818-1.011,4.208-3.242,4.208
		h-1.688V26.319z"/>
	<path fill="#212121" d="M48,20.136c0.53,0,1.039,0.219,1.414,0.609S50,21.667,50,22.219v16.667c0,0.553-0.211,1.082-0.586,1.473
		S48.53,40.968,48,40.968H24c-0.53,0-1.039-0.219-1.414-0.609S22,39.438,22,38.886V22.219c0-0.552,0.211-1.083,0.586-1.474
		S23.47,20.136,24,20.136H48z M24,18.052c-1.061,0-2.078,0.439-2.828,1.22C20.421,20.054,20,21.114,20,22.219v16.667
		c0,1.105,0.421,2.164,1.172,2.945c0.75,0.781,1.767,1.221,2.828,1.221h24c1.061,0,2.078-0.439,2.828-1.221S52,39.991,52,38.886
		V22.219c0-1.104-0.422-2.165-1.172-2.946s-1.768-1.22-2.828-1.22H24z"/>
</g>
</svg>
