<svg  viewBox="0 0 12 3" fill="none" xmlns="http://www.w3.org/2000/svg">
<path d="M1.682 2.57088C1.30664 2.57088 1.00304 2.45496 0.771202 2.22312C0.550402 1.99128 0.440002 1.6932 0.440002 1.32888C0.440002 0.9756 0.550402 0.68856 0.771202 0.46776C1.00304 0.23592 1.30664 0.12 1.682 0.12C2.0684 0.12 2.36648 0.23592 2.57624 0.46776C2.79704 0.68856 2.90744 0.9756 2.90744 1.32888C2.90744 1.6932 2.79704 1.99128 2.57624 2.22312C2.36648 2.45496 2.0684 2.57088 1.682 2.57088Z" fill="#A1A1A1"/>
<path d="M5.78966 2.57088C5.4143 2.57088 5.1107 2.45496 4.87886 2.22312C4.65806 1.99128 4.54766 1.6932 4.54766 1.32888C4.54766 0.9756 4.65806 0.68856 4.87886 0.46776C5.1107 0.23592 5.4143 0.12 5.78966 0.12C6.17606 0.12 6.47414 0.23592 6.6839 0.46776C6.9047 0.68856 7.0151 0.9756 7.0151 1.32888C7.0151 1.6932 6.9047 1.99128 6.6839 2.22312C6.47414 2.45496 6.17606 2.57088 5.78966 2.57088Z" fill="#A1A1A1"/>
<path d="M9.89732 2.57088C9.52196 2.57088 9.21836 2.45496 8.98652 2.22312C8.76571 1.99128 8.65532 1.6932 8.65532 1.32888C8.65532 0.9756 8.76571 0.68856 8.98652 0.46776C9.21836 0.23592 9.52196 0.12 9.89732 0.12C10.2837 0.12 10.5818 0.23592 10.7916 0.46776C11.0124 0.68856 11.1228 0.9756 11.1228 1.32888C11.1228 1.6932 11.0124 1.99128 10.7916 2.22312C10.5818 2.45496 10.2837 2.57088 9.89732 2.57088Z" fill="#A1A1A1"/>
</svg>
