<svg  viewBox="0 0 19 23" fill="currentColor" xmlns="http://www.w3.org/2000/svg">
<path d="M9.90574 22.4138L9.89327 22.4159L9.81949 22.4528L9.7987 22.457L9.78415 22.4528L9.71037 22.4148C9.69929 22.412 9.69097 22.4141 9.68543 22.4212L9.68128 22.4317L9.66361 22.883L9.66881 22.9041L9.6792 22.9178L9.78727 22.9958L9.80286 23L9.81533 22.9958L9.92341 22.9178L9.93588 22.9009L9.94003 22.883L9.92237 22.4327C9.9196 22.4215 9.91405 22.4152 9.90574 22.4138ZM10.1801 22.2946L10.1655 22.2967L9.97433 22.3948L9.96393 22.4053L9.96082 22.4169L9.97952 22.8703L9.98472 22.883L9.99303 22.8914L10.2019 22.9884C10.2151 22.9919 10.2251 22.9891 10.232 22.98L10.2362 22.9652L10.2009 22.3178C10.1974 22.3045 10.1905 22.2967 10.1801 22.2946ZM9.43706 22.2967C9.43248 22.2939 9.42701 22.293 9.42178 22.2942C9.41656 22.2954 9.41198 22.2985 9.40901 22.3031L9.40277 22.3178L9.36744 22.9652C9.36813 22.9779 9.37402 22.9863 9.38511 22.9905L9.40069 22.9884L9.60957 22.8903L9.61996 22.8819L9.62308 22.8703L9.64179 22.4169L9.63867 22.4043L9.62828 22.3937L9.43706 22.2967Z" />
<path d="M9.28846 0C7.35919 0 5.50893 0.777595 4.14473 2.16172C2.78052 3.54585 2.01412 5.42313 2.01412 7.38058V11.1004C2.01427 11.264 1.97692 11.4253 1.90501 11.5717L0.120715 15.1913C0.0335547 15.3682 -0.00760183 15.5647 0.00115484 15.7622C0.00991151 15.9597 0.0682905 16.1517 0.170747 16.3199C0.273204 16.4881 0.416337 16.6269 0.58655 16.7231C0.756764 16.8194 0.948408 16.8699 1.14328 16.8699H17.4336C17.6285 16.8699 17.8202 16.8194 17.9904 16.7231C18.1606 16.6269 18.3037 16.4881 18.4062 16.3199C18.5086 16.1517 18.567 15.9597 18.5758 15.7622C18.5845 15.5647 18.5434 15.3682 18.4562 15.1913L16.673 11.5717C16.6007 11.4254 16.563 11.264 16.5628 11.1004V7.38058C16.5628 5.42313 15.7964 3.54585 14.4322 2.16172C13.068 0.777595 11.2177 0 9.28846 0ZM9.28846 20.033C8.64348 20.0333 8.01428 19.8307 7.48756 19.453C6.96084 19.0754 6.56254 18.5412 6.34755 17.9243H12.2294C12.0144 18.5412 11.6161 19.0754 11.0894 19.453C10.5626 19.8307 9.93344 20.0333 9.28846 20.033Z" />
</svg>
