<svg width="14" height="19" viewBox="0 0 14 19" fill="none" xmlns="http://www.w3.org/2000/svg">
<path d="M9.53674e-07 18.0494L9.53674e-07 0.948942C0.000535011 0.775808 0.0475311 0.606102 0.13593 0.458086C0.224328 0.310072 0.35078 0.189358 0.501678 0.108934C0.652575 0.0285091 0.822204 -0.00857544 0.992302 0.00166893C1.1624 0.0119133 1.32653 0.0690975 1.46702 0.16707L13.622 8.71731C14.126 9.07167 14.126 9.9248 13.622 10.2801L1.46702 18.8304C1.32682 18.9293 1.16261 18.9874 0.992229 18.9982C0.821847 19.009 0.651811 18.9721 0.500593 18.8916C0.349377 18.8111 0.222761 18.6901 0.134506 18.5416C0.0462513 18.3931 -0.000267982 18.2229 9.53674e-07 18.0494Z" fill="white"/>
</svg>
