<svg viewBox="0 0 12 11" fill="currentColor" xmlns="http://www.w3.org/2000/svg">
<path d="M5.35662 0.391828C5.6198 -0.130609 6.3802 -0.130609 6.64338 0.391828L7.94166 2.96905C8.04617 3.17651 8.24819 3.3203 8.48187 3.35357L11.3849 3.76685C11.9734 3.85063 12.2084 4.55914 11.7825 4.9658L9.68189 6.97189C9.51279 7.13338 9.43563 7.36604 9.47554 7.59406L9.97144 10.4267C10.072 11.0009 9.45678 11.4388 8.93043 11.1677L6.33387 9.83031C6.12485 9.72265 5.87515 9.72265 5.66613 9.83031L3.06957 11.1677C2.54321 11.4388 1.92803 11.0009 2.02856 10.4267L2.52445 7.59406C2.56437 7.36604 2.48721 7.13338 2.31811 6.97189L0.217452 4.9658C-0.20838 4.55914 0.0265996 3.85063 0.615085 3.76685L3.51813 3.35357C3.75181 3.3203 3.95383 3.17651 4.05834 2.96905L5.35662 0.391828Z" fill="currentColor"/>
</svg>
