<svg  viewBox="0 0 24 24" fill="currentColor" xmlns="http://www.w3.org/2000/svg">
<path d="M20.6667 0C21.3518 0 22.0089 0.272172 22.4934 0.756641C22.9778 1.24111 23.25 1.89819 23.25 2.58333V20.6667C23.25 21.3518 22.9778 22.0089 22.4934 22.4934C22.0089 22.9778 21.3518 23.25 20.6667 23.25H2.58333C1.89819 23.25 1.24111 22.9778 0.756641 22.4934C0.272172 22.0089 0 21.3518 0 20.6667V2.58333C0 1.89819 0.272172 1.24111 0.756641 0.756641C1.24111 0.272172 1.89819 0 2.58333 0H20.6667ZM16.2492 18.0833L15.0221 12.8133L19.1038 9.28708L13.7175 8.82208L11.625 3.875L9.5325 8.835L4.14625 9.3L8.22792 12.8263L7.00083 18.0833L11.625 15.2933L16.2492 18.0833Z"/>
</svg>
